# xmcd
#
# Track frame offsets:
#	150
#	16226
#	31187
#	47368
#	65230
#	84585
#	98509
#	112068
#	122317
#	141679
#
# Disc length: 2166 seconds
#
# Revision: 1
# Processed by: cddbd v1.5.2PL0 Copyright (c) Steve Scherf et al.
# Submitted via: audiograbber 1.83.01
#
DISCID=7f08740a
DTITLE=Crystal Lynn - Tears
DYEAR=2004
DGENRE=Country
TTITLE0=Countrified
TTITLE1=East Kentucky
TTITLE2=Headin' South
TTITLE3=Rollin'
TTITLE4=Tears
TTITLE5=Dear Mom And Dad
TTITLE6=Delta Dawn
TTITLE7=I Feel Fine
TTITLE8=You Lied
TTITLE9=It All Begins With A Song
EXTD=
EXTT0=
EXTT1=
EXTT2=
EXTT3=
EXTT4=
EXTT5=
EXTT6=
EXTT7=
EXTT8=
EXTT9=
PLAYORDER=
